<svg width="2010" height="3545" viewBox="0 0 2010 3545" fill="none" xmlns="http://www.w3.org/2000/svg">
<rect width="2010" height="3545" fill="#F7F7F7"/>
<path d="M549.73 112.353C639.629 111.5 674.497 185.008 680.694 221.869C683.332 233.917 692.895 254.208 710.036 238.988C731.462 219.963 707.49 77.8002 635.563 64.8903C563.635 51.9803 437.356 113.421 549.73 112.353Z" fill="#3E5693"/>
<rect x="1372.57" y="588.066" width="515.544" height="321" rx="25.5" stroke="black" stroke-width="5"/>
<path d="M114 366V55.4654H502.686C502.686 55.4654 646 38.9635 646 202.482C646 366 502.686 366 502.686 366H114Z" stroke="black" stroke-width="3"/>
<rect y="1019" width="2010" height="914" fill="#394671"/>
<path d="M232 497C143.045 510.018 125.667 399.333 127.5 362C127.5 349.667 138 339 102.5 339C73.8468 339 70.5 497 138 525C205.5 553 334.5 482 232 497Z" fill="#A5A5A5"/>
<path d="M1295.84 639.1C1270.52 599.573 1248.73 526.093 1364.13 548.387C1334.35 552.883 1279.01 577.32 1295.84 639.1Z" fill="#2D4370"/>
</svg>
