<svg width="92" height="92" viewBox="0 0 92 92" fill="none" xmlns="http://www.w3.org/2000/svg">
<g id="instagram">
<path d="M64.513 7.66476C69.5411 7.67993 74.359 9.70396 77.9144 13.2948C81.4699 16.8857 83.4739 21.7515 83.489 26.8297V65.1556C83.4739 70.2338 81.4699 75.0997 77.9144 78.6905C74.359 82.2814 69.5411 84.3054 64.513 84.3206H26.5651C21.537 84.3054 16.7191 82.2814 13.1637 78.6905C9.60825 75.0997 7.60418 70.2338 7.58917 65.1556V26.8297C7.60418 21.7515 9.60825 16.8857 13.1637 13.2948C16.7191 9.70396 21.537 7.67993 26.5651 7.66476H64.513ZM64.513 0H26.5651C11.954 0 0 12.0731 0 26.8297V65.1556C0 79.9123 11.954 91.9853 26.5651 91.9853H64.513C79.1241 91.9853 91.0781 79.9123 91.0781 65.1556V26.8297C91.0781 12.0731 79.1241 0 64.513 0Z" fill="black"/>
<path d="M70.2053 26.8296C69.0794 26.8296 67.9789 26.4924 67.0428 25.8607C66.1067 25.229 65.3771 24.3311 64.9462 23.2806C64.5154 22.2301 64.4026 21.0741 64.6223 19.9589C64.8419 18.8437 65.3841 17.8193 66.1802 17.0153C66.9763 16.2113 67.9906 15.6637 69.0948 15.4419C70.199 15.2201 71.3435 15.3339 72.3837 15.7691C73.4238 16.2042 74.3129 16.9411 74.9383 17.8865C75.5638 18.8319 75.8977 19.9435 75.8977 21.0805C75.8993 21.836 75.7531 22.5843 75.4676 23.2825C75.1821 23.9808 74.7629 24.6152 74.234 25.1494C73.7051 25.6835 73.0769 26.1069 72.3856 26.3953C71.6942 26.6836 70.9533 26.8312 70.2053 26.8296Z" fill="black"/>
<path d="M45.5391 30.6611C48.5415 30.6611 51.4764 31.5603 53.9728 33.245C56.4692 34.9296 58.4149 37.3241 59.5639 40.1256C60.7129 42.927 61.0135 46.0097 60.4277 48.9837C59.842 51.9578 58.3962 54.6896 56.2732 56.8337C54.1502 58.9779 51.4453 60.4381 48.5006 61.0297C45.5559 61.6212 42.5036 61.3176 39.7298 60.1572C36.9559 58.9968 34.5851 57.0317 32.9171 54.5105C31.249 51.9892 30.3587 49.025 30.3587 45.9927C30.363 41.9278 31.9637 38.0307 34.8097 35.1564C37.6556 32.2822 41.5143 30.6655 45.5391 30.6611ZM45.5391 22.9964C41.0357 22.9964 36.6334 24.3451 32.889 26.8719C29.1446 29.3988 26.2261 32.9903 24.5028 37.1924C22.7794 41.3944 22.3285 46.0182 23.2071 50.4791C24.0856 54.9399 26.2542 59.0375 29.4386 62.2536C32.623 65.4697 36.6801 67.6598 41.097 68.5472C45.5138 69.4345 50.092 68.9791 54.2526 67.2385C58.4132 65.498 61.9693 62.5505 64.4712 58.7688C66.9732 54.987 68.3086 50.5409 68.3086 45.9927C68.3086 39.8937 65.9097 34.0445 61.6396 29.7318C57.3694 25.4192 51.5779 22.9964 45.5391 22.9964Z" fill="black"/>
</g>
</svg>
