<svg width="92" height="92" viewBox="0 0 92 92" fill="none" xmlns="http://www.w3.org/2000/svg">
<path id="linkedin" d="M83.825 0H7.81354C3.66014 0 0.03125 3.00288 0.03125 7.12725V83.6743C0.03125 87.8211 3.66014 91.5165 7.81354 91.5165H83.8027C87.9784 91.5165 91.1092 87.7966 91.1092 83.6743V7.12725C91.1336 3.00288 87.9784 0 83.825 0ZM28.2634 76.2835H15.2157V35.5198H28.2634V76.2835ZM22.1908 29.322H22.0973C17.9216 29.322 15.2177 26.1986 15.2177 22.2888C15.2177 18.3074 17.9927 15.2575 22.262 15.2575C26.5313 15.2575 29.1437 18.2849 29.2372 22.2888C29.2352 26.1986 26.5313 29.322 22.1908 29.322ZM75.9492 76.2835H62.9015V53.9947C62.9015 48.6549 61.0027 45.0065 56.2821 45.0065C52.6755 45.0065 50.5409 47.4578 49.5915 49.8458C49.2357 50.7038 49.1402 51.8723 49.1402 53.0653V76.2835H36.0924V35.5198H49.1402V41.1926C51.039 38.4757 54.0051 34.5659 60.9071 34.5659C69.4721 34.5659 75.9512 40.2387 75.9512 52.4688L75.9492 76.2835Z" fill="black"/>
</svg>
