<svg width="2072" height="2072" viewBox="0 0 2072 2072" fill="none" xmlns="http://www.w3.org/2000/svg">
<path fill-rule="evenodd" clip-rule="evenodd" d="M1463.6 160.272C1455.32 165.096 1455.92 181.218 1464.79 192.505C1473.96 204.167 1471.51 214.202 1461.08 207.686C1457.23 205.281 1454.08 199.89 1454.08 195.699C1454.08 186.505 1448.01 181.993 1442.73 187.27C1432.21 197.793 1456.49 225.033 1472.76 220.95C1485.37 217.783 1487.81 204.745 1478.67 189.249C1469.63 173.926 1469.53 170.376 1478.18 170.376C1485.75 170.376 1493.75 182.269 1490.12 188.135C1488.84 190.215 1489.86 193.194 1492.39 194.758C1505.55 202.89 1506.22 179.809 1493.22 166.241C1483.56 156.161 1473.97 154.226 1463.6 160.272ZM1496.4 209.71C1475.14 230.424 1473.65 238.93 1488.64 253.924C1496.13 261.409 1501.63 263.969 1508.53 263.173C1520.11 261.845 1521.64 251.875 1510.36 251.304C1501.21 250.844 1492.14 244.037 1492.14 237.636C1492.14 228.829 1499.71 228.528 1508.85 236.968C1521.85 248.968 1529.81 251.007 1539.33 244.774C1550.31 237.573 1549.89 224.175 1538.33 213.465C1533.3 208.8 1528.03 204.98 1526.63 204.98C1525.23 204.98 1523.27 201.866 1522.27 198.059C1519.74 188.37 1517.06 189.574 1496.4 209.71ZM1508.49 217.462C1507.15 218.794 1511.03 223.542 1517.08 228.012C1529.37 237.075 1538.34 233.988 1531.5 223.05C1527.62 216.863 1512.71 213.24 1508.49 217.462ZM1538.2 253.252C1518.77 265.104 1514.78 280.69 1527.14 296.417L1534.47 305.74L1526.78 313.93C1519.55 321.626 1519.64 329.554 1526.95 329.554C1529.36 329.554 1578.65 291.32 1592.19 278.949C1592.99 278.219 1591.15 274.901 1588.1 271.579C1585.06 268.257 1578.64 261.256 1573.83 256.021C1563.54 244.806 1553.34 244.013 1538.2 253.252ZM1541.02 267.589C1530.22 277.659 1532.05 292.832 1544.25 294.255C1553.36 295.313 1571.7 280.894 1571.7 272.679C1571.7 259.685 1552.86 256.557 1541.02 267.589ZM1578.89 301.206C1568.57 308.235 1558.61 316.467 1556.76 319.502C1551.73 327.741 1556.94 343.122 1566.19 347.337C1571.69 349.846 1573.79 353.112 1572.66 357.434C1571.64 361.313 1574.29 366.943 1579.39 371.774C1584.01 376.152 1588.84 382.584 1590.13 386.073C1592.88 393.537 1591.38 394.076 1621 374.979C1645.29 359.317 1646.08 358.396 1641.4 351.012C1639.22 347.579 1634.16 349.41 1619.91 358.798C1598.52 372.888 1594.1 373.684 1589.11 364.348C1585.38 357.379 1590.68 351.887 1617.75 334.668C1626.28 329.246 1626.85 327.865 1622.41 323.429C1617.98 318.993 1615.39 319.723 1601.36 329.381C1572.81 349.026 1554.94 335.81 1582.73 315.609C1590.94 309.643 1599.99 303.421 1602.84 301.784C1607.45 299.134 1607.45 298.227 1602.84 293.618C1598.23 289.012 1595.56 289.856 1578.89 301.206ZM1623.6 380.515C1592.61 396.222 1600.38 436.826 1634.38 436.826C1662.4 436.826 1678.38 406.672 1660.78 386.972C1650.23 375.155 1638.27 373.079 1623.6 380.515ZM1626.19 395.699C1613.4 405.24 1613.28 418.541 1625.95 421.721C1644.57 426.396 1662.11 406.641 1651.11 393.381C1645.43 386.536 1637.48 387.273 1626.19 395.699ZM1653.54 439.695C1650.39 443.176 1647.81 447.847 1647.81 450.076C1647.81 452.304 1643.53 454.176 1638.3 454.239C1627.03 454.367 1618.53 460.149 1615.48 469.759C1613.35 476.461 1631 519.875 1635.86 519.875C1637.44 519.875 1686.69 495.262 1709.44 483.095C1712.48 481.472 1688.42 440.048 1682.65 436.958C1672.42 431.483 1659.9 432.66 1653.54 439.695ZM1661.69 452.353C1657 458.007 1659.07 469.755 1666.44 479.292C1670.25 484.23 1672.94 484.752 1680.25 481.974C1691.28 477.78 1691.95 468.779 1682.15 456.325C1674.06 446.024 1667.92 444.833 1661.69 452.353ZM1634.58 468.745C1629.1 474.233 1629.63 485.541 1635.76 493.639C1640.03 499.286 1642.09 499.677 1649.59 496.262C1657.99 492.435 1658.16 491.791 1653.33 482.451C1646.04 468.35 1639.65 463.675 1634.58 468.745ZM1707.98 532.271C1709.14 535.281 1710.08 538.395 1710.08 539.191C1710.08 539.987 1712.36 540.638 1715.15 540.638C1722 540.638 1728.26 553.157 1725.61 561.532C1721.84 573.418 1714.61 568.881 1707.92 550.424C1704.35 540.579 1699.53 531.9 1697.21 531.136C1694.88 530.371 1689.04 533.682 1684.23 538.496C1672.23 550.5 1672.3 568.913 1684.4 581.01C1692.01 588.623 1695.42 589.64 1707.74 587.986C1735.45 584.27 1747.86 553.884 1729.26 535.291C1719.53 525.55 1704.59 523.429 1707.98 532.271ZM1689.67 552.334C1684.15 558.992 1685.84 568.207 1693.48 573.017C1702.43 578.654 1704.57 573.46 1699.03 559.57C1694.74 548.801 1693.44 547.794 1689.67 552.334ZM1705.76 598.149C1685.3 604.703 1668.59 611.185 1668.62 612.552C1668.79 620.51 1674.9 624.248 1681.74 620.583C1692.97 614.569 1696.24 616.005 1696.24 626.95C1696.24 639.484 1707.05 647.91 1723.13 647.91C1736.75 647.91 1753.34 640.058 1756.37 632.182C1759.69 623.518 1758.9 607.036 1755.05 604.655C1753.15 603.478 1751.6 598.717 1751.6 594.07C1751.6 583.574 1751.1 583.616 1705.76 598.149ZM1722.07 606.219C1702.74 614.053 1702.44 634.068 1721.65 634.068C1743.17 634.068 1756.99 614.828 1741.45 606.506C1733.71 602.364 1731.65 602.333 1722.07 606.219ZM1748.91 680.811C1738.88 683.261 1728.37 687.175 1725.56 689.504C1719.14 694.836 1718.93 711.951 1725.21 717.82C1728.23 720.644 1729.36 726.717 1728.31 734.537C1727.19 742.863 1728.33 748.206 1731.85 751.126C1734.72 753.51 1736.25 758.473 1735.27 762.231C1733.09 770.556 1735.32 770.57 1768.89 762.48C1785.86 758.393 1794.84 754.552 1794.84 751.379C1794.84 747.804 1791.2 746.884 1781 747.873C1746.39 751.233 1742.95 750.642 1742.95 741.34C1742.95 733.599 1745.24 732.122 1764.73 727.291C1776.71 724.322 1786.55 720.779 1786.61 719.419C1786.96 710.622 1783.31 709.806 1762.7 714.065C1743.32 718.066 1740.54 717.92 1735.25 712.629C1730.08 707.46 1729.98 706.127 1734.42 701.771C1737.21 699.04 1748.05 694.663 1758.51 692.04C1771.11 688.884 1777.91 685.303 1778.65 681.434C1779.98 674.555 1774.97 674.451 1748.91 680.811ZM1775.81 775.124C1775.81 778.477 1779.31 782.761 1783.59 784.64C1793.21 788.862 1795.37 800.873 1787.86 808.385C1778.75 817.493 1776.62 815.154 1774.08 793.246C1772.05 775.723 1770.61 772.484 1764.87 772.484C1745.61 772.484 1734.51 792.599 1742.79 812.451C1748.34 825.736 1758.68 829.836 1778.59 826.646C1802.96 822.746 1812.29 794.817 1794.99 777.519C1785.07 767.584 1775.81 766.432 1775.81 775.124ZM1755.49 790.99C1749.51 798.198 1751.9 811.936 1759.38 813.361C1765.86 814.597 1767.31 804.458 1762.43 792.045C1760.19 786.35 1759.43 786.235 1755.49 790.99ZM1773.23 835.56L1748.17 838.882L1749.52 857.775C1751.29 882.759 1758.06 890.172 1778.94 890.026C1796.1 889.909 1803.4 886.023 1810.09 873.454C1813.19 867.631 1813.4 862.637 1810.84 855.287C1807.79 846.543 1808.15 845.152 1813.49 845.152C1822.73 845.152 1828.51 860.09 1822.39 868.163C1816.03 876.558 1816.05 883.216 1822.43 883.216C1831.49 883.216 1838.75 867.783 1836.16 854.004C1831.98 831.705 1822.75 828.999 1773.23 835.56ZM1767.7 852.979C1763.72 855.893 1761.77 860.831 1762.51 866.108C1763.57 873.614 1765.42 874.565 1778.89 874.565C1789.6 874.565 1795.21 872.776 1797.9 868.51C1806.59 854.737 1782.33 842.266 1767.7 852.979ZM1786.82 897.878C1765.4 900.712 1760.94 902.463 1757.84 909.259C1750.7 924.938 1762.63 952.424 1776.58 952.424C1781.63 952.424 1779.28 939.33 1773.86 937.247C1770.16 935.828 1768.8 931.689 1769.54 924.166C1771.18 907.525 1777.88 908.633 1782.32 926.274C1784.84 936.292 1789.36 943.963 1794.87 947.576C1802.86 952.812 1804.14 952.794 1812.47 947.334C1820.46 942.095 1821.23 939.856 1819.4 927.039C1818.27 919.114 1817.36 908.346 1817.39 903.113C1817.41 897.881 1816.24 893.805 1814.79 894.061C1813.33 894.317 1800.74 896.033 1786.82 897.878ZM1793.23 921.696C1797.46 936.465 1802.27 941.185 1807.62 935.831C1813.83 929.617 1806.89 912.889 1797.54 911.546C1790.59 910.55 1790.26 911.339 1793.23 921.696ZM1810.41 957.244C1810.41 963.48 1802.81 966.266 1785.8 966.266C1776.85 966.266 1771.45 964.477 1770.14 961.075C1769.05 958.22 1765.98 955.884 1763.33 955.884C1760.68 955.884 1758.51 958.22 1758.51 961.075C1758.51 964.304 1755.25 966.266 1749.87 966.266C1740.45 966.266 1740.22 966.56 1743.32 974.633C1744.47 977.643 1749.14 980.107 1753.69 980.107C1758.25 980.107 1761.97 981.664 1761.97 983.568C1761.97 988.17 1771.44 988.028 1772.98 983.401C1773.65 981.405 1783.51 978.858 1794.89 977.74C1818.67 975.408 1824.24 972.162 1824.24 960.653C1824.24 954.732 1822.3 952.424 1817.32 952.424C1813.52 952.424 1810.41 954.594 1810.41 957.244ZM1770.47 994.931C1758.59 1005.16 1757.69 1025.8 1768.64 1036.76C1778.51 1046.64 1806.41 1047.08 1816.96 1037.53C1827.83 1027.69 1827.02 1004.69 1815.41 993.779C1807.97 986.779 1806.08 986.277 1803.36 990.578C1798.64 998.039 1799.23 1000.2 1807.16 1004.44C1816.2 1009.29 1814.81 1020.8 1804.35 1027.71L1796.57 1032.86V1009.94C1796.57 987.945 1796.23 987.028 1788.11 987.028C1783.46 987.028 1775.52 990.585 1770.47 994.931ZM1778.41 1004.61C1770.15 1009.41 1770.68 1023.95 1779.27 1028.55C1785.72 1032 1786.19 1031.18 1786.19 1016.56C1786.19 1007.93 1785.8 1000.92 1785.32 1000.97C1784.85 1001.03 1781.73 1002.67 1778.41 1004.61ZM1761.97 1059.24C1761.97 1065.94 1763.86 1066.62 1782.48 1066.62C1803.3 1066.62 1813.86 1071.89 1813.86 1082.26C1813.86 1090.4 1803.09 1093.61 1782.12 1091.7C1763.27 1090 1761.97 1090.36 1761.97 1097.28C1761.97 1104.14 1763.75 1104.68 1786.42 1104.68C1821.06 1104.68 1824.38 1102.21 1823.8 1076.87L1823.34 1056.24L1805.63 1056.2C1795.89 1056.18 1782.08 1055.19 1774.95 1054.01C1763.34 1052.1 1761.97 1052.65 1761.97 1059.24ZM1761.76 1115.49C1759.35 1130 1758.47 1149.02 1759.93 1154.84C1762.3 1164.26 1775.55 1170.43 1793.44 1170.43C1811.47 1170.43 1825.8 1156.57 1822.87 1141.95C1821.07 1132.95 1821.69 1132.36 1832.98 1132.36C1842.69 1132.36 1845 1131.04 1845 1125.44C1845 1119.04 1842.69 1118.52 1814.3 1118.52C1797.41 1118.52 1778.73 1117.55 1772.78 1116.36C1766.84 1115.17 1761.88 1114.78 1761.76 1115.49ZM1774.37 1133.46C1765.73 1139.78 1768.75 1150.41 1780.84 1156.2C1789.58 1160.39 1792.21 1160.38 1799.81 1156.11C1816.99 1146.46 1810.43 1128.9 1789.65 1128.9C1784.67 1128.9 1777.79 1130.95 1774.37 1133.46ZM1734.3 1180.81C1734.3 1185.42 1736.61 1187.73 1741.22 1187.73C1745.83 1187.73 1748.14 1185.42 1748.14 1180.81C1748.14 1176.2 1745.83 1173.89 1741.22 1173.89C1736.61 1173.89 1734.3 1176.2 1734.3 1180.81ZM1756.64 1181.04C1753.17 1186.65 1755.94 1187.89 1779.77 1191.33C1812.42 1196.06 1817.32 1195.64 1817.32 1188.2C1817.32 1183.15 1813.84 1181.27 1801.27 1179.55C1777.38 1176.27 1759.21 1176.88 1756.64 1181.04ZM1755.05 1200.12C1755.05 1204.45 1752.79 1205.08 1744.16 1203.19C1734.83 1201.14 1733.59 1201.64 1735.51 1206.66C1736.74 1209.88 1737.76 1213.17 1737.76 1213.97C1737.76 1214.76 1740.87 1215.41 1744.68 1215.41C1748.52 1215.41 1751.6 1217.72 1751.6 1220.6C1751.6 1223.46 1753.93 1225.79 1756.78 1225.79C1759.64 1225.79 1761.97 1224.34 1761.97 1222.57C1761.97 1220.79 1774.04 1219.62 1788.78 1219.97L1815.59 1220.6L1816.69 1211.09C1817.47 1204.29 1816.23 1201.57 1812.36 1201.57C1809.39 1201.57 1806.95 1203.13 1806.95 1205.03C1806.95 1208.79 1779.81 1209.81 1770.91 1206.39C1767.9 1205.24 1765.43 1202.12 1765.43 1199.47C1765.43 1196.82 1763.1 1194.65 1760.24 1194.65C1757.39 1194.65 1755.05 1197.11 1755.05 1200.12ZM1729.2 1230.12C1727.98 1233.8 1720.46 1281.56 1720.46 1285.59C1720.46 1286.34 1738.51 1289.79 1760.57 1293.25C1806.56 1300.46 1805 1301.18 1808.6 1271.11C1809.88 1260.46 1811.75 1248.25 1812.77 1243.96C1814.21 1237.86 1813.11 1236.18 1807.66 1236.18C1801.76 1236.18 1800.35 1239.22 1798.37 1256.3C1795.32 1282.59 1793.46 1285.21 1779.73 1282.47C1769.93 1280.5 1768.75 1279.11 1770.22 1271.18C1776.43 1237.48 1776.4 1236.18 1769.39 1236.18C1763.72 1236.18 1762.27 1239.5 1760.22 1257.13L1757.79 1278.08L1746.91 1277.03C1735.06 1275.88 1735.42 1277.5 1739.69 1243.96C1741.67 1228.46 1741.18 1225.79 1736.32 1225.79C1733.18 1225.79 1729.98 1227.74 1729.2 1230.12ZM1737.49 1343.18C1715.68 1365 1730.84 1391.89 1764.96 1391.89C1781.6 1391.89 1793.11 1379.9 1793.11 1362.55C1793.11 1352.91 1784.74 1339.99 1778.5 1339.99C1773.34 1339.99 1772.81 1352.06 1777.73 1357.5C1784.06 1364.49 1780.26 1375.6 1770.22 1379.46C1761.52 1382.8 1760.8 1380.05 1765.4 1360.9C1767.71 1351.25 1768.71 1341.05 1767.63 1338.22C1764.33 1329.61 1748.44 1332.23 1737.49 1343.18ZM1743.21 1353.54C1738.42 1358.83 1737.99 1361.63 1741.06 1367.38C1746.49 1377.53 1750.38 1376.35 1752.89 1363.78C1756.74 1344.54 1753.99 1341.63 1743.21 1353.54ZM1696.86 1394.27C1697.48 1397.48 1702.92 1401.39 1708.94 1402.95C1719.79 1405.76 1719.85 1405.89 1714.77 1416.08C1705.16 1435.36 1721.65 1454.02 1748.4 1454.13C1764.26 1454.19 1777.48 1441.41 1775 1428.4C1774.07 1423.55 1774.77 1419.58 1776.54 1419.58C1778.32 1419.58 1779.27 1416.98 1778.66 1413.81C1777.87 1409.74 1767.42 1405.21 1742.95 1398.35C1701.96 1386.87 1695.32 1386.28 1696.86 1394.27ZM1726.23 1414.96C1721.3 1419.89 1724.22 1433.34 1731 1436.97C1740.75 1442.19 1758.78 1439.83 1763.21 1432.76C1768.94 1423.59 1757.01 1412.66 1741.26 1412.66C1734.26 1412.66 1727.49 1413.69 1726.23 1414.96ZM1703.48 1485.72C1684.52 1493.11 1679.29 1519.46 1694.02 1533.3C1704.41 1543.07 1724.98 1546.6 1736.26 1540.57C1747.23 1534.7 1754.05 1513.67 1748.41 1503.13C1740.63 1488.6 1718.3 1479.94 1703.48 1485.72ZM1703.2 1501.9C1693.55 1509.72 1695.93 1520.56 1708.58 1526.32C1719.81 1531.44 1728.38 1531.39 1733.61 1526.16C1748.31 1511.45 1719.65 1488.58 1703.2 1501.9ZM1653 1533.77C1650.14 1538.39 1653.98 1544.15 1659.92 1544.15C1666.98 1544.15 1670.19 1536.92 1664.69 1533.44C1658.44 1529.48 1655.6 1529.55 1653 1533.77ZM1674.1 1542.77C1672.87 1545.98 1672.32 1549.06 1672.88 1549.61C1673.43 1550.17 1686.23 1555.38 1701.32 1561.19C1722.14 1569.21 1729.4 1570.72 1731.47 1567.47C1735.93 1560.44 1735.36 1560.01 1707.76 1549.28C1693.16 1543.6 1680.12 1538.5 1678.78 1537.95C1677.44 1537.39 1675.33 1539.56 1674.1 1542.77ZM1667.53 1556.72C1666.2 1558.05 1665.11 1562.78 1665.11 1567.22C1665.11 1571.66 1663.55 1575.29 1661.65 1575.29C1659.75 1575.29 1658.19 1577.42 1658.19 1580C1658.19 1584.11 1704.56 1606.44 1713.09 1606.44C1714.84 1606.44 1717.19 1604.02 1718.33 1601.05C1719.76 1597.32 1717.43 1594.64 1710.74 1592.31C1681.33 1582.05 1675.61 1576.46 1679.4 1561.66C1680.75 1556.39 1671.65 1552.6 1667.53 1556.72ZM1623.77 1602.66C1621.06 1607.71 1621.79 1611.15 1626.85 1617.36C1632.41 1624.18 1633.8 1624.6 1635.59 1620.01C1637.63 1614.76 1632.48 1596.06 1628.99 1596.06C1628.06 1596.06 1625.71 1599.03 1623.77 1602.66ZM1648.3 1605.95C1627 1627.26 1641.86 1658.47 1673.75 1659.37C1690.76 1659.86 1701.28 1648.89 1701.28 1630.66C1701.28 1612.45 1691.6 1602.77 1671.09 1600.46C1658.45 1599.04 1654.18 1600.06 1648.3 1605.95ZM1653.58 1615.67C1644.86 1624.38 1660.69 1647.96 1675.26 1647.96C1689.94 1647.96 1694.37 1627.66 1681.63 1618.75C1673.8 1613.25 1657.75 1611.49 1653.58 1615.67ZM1606.3 1651.25C1606.3 1654.96 1608.36 1659.24 1610.88 1660.77C1613.4 1662.29 1616.47 1666.26 1617.69 1669.59C1620.08 1676.07 1627.06 1677.97 1627.06 1672.14C1627.06 1670.21 1636.56 1673.42 1648.17 1679.29C1670.92 1690.77 1677.46 1690.59 1682.07 1678.32C1685.53 1669.09 1676.74 1661.1 1671.84 1669.02C1669.6 1672.66 1665.53 1671.94 1651.78 1665.5C1641.3 1660.59 1635.2 1655.71 1636.22 1653.05C1638.63 1646.77 1630.32 1642.68 1626.78 1648.38C1624.36 1652.26 1622.51 1652.35 1616.83 1648.83C1607.51 1643.05 1606.3 1643.33 1606.3 1651.25ZM1604.4 1688.26C1594.8 1698.63 1592.71 1720.58 1600.7 1727.22C1606.75 1732.23 1609.79 1725.82 1607.37 1713.17C1605.38 1702.76 1615.45 1690.33 1621.21 1696.09C1623.68 1698.57 1623.54 1702.44 1620.73 1708.59C1615.5 1720.08 1615.54 1735.41 1620.83 1740.7C1632.3 1752.18 1654.73 1740.09 1654.73 1722.42C1654.73 1718.55 1657.84 1713.43 1661.65 1711.05C1669.83 1705.94 1670.74 1699.87 1663.33 1699.87C1660.45 1699.87 1649.81 1695.2 1639.7 1689.49C1617.25 1676.82 1615.08 1676.74 1604.4 1688.26ZM1631.18 1714.34C1627.42 1728.24 1632.05 1736.92 1639.8 1730.49C1645.57 1725.7 1644.57 1706.23 1638.46 1704.22C1636.12 1703.46 1632.93 1707.88 1631.18 1714.34ZM1584.42 1723.42C1581.23 1726.94 1578.62 1731.65 1578.62 1733.88C1578.62 1736.11 1577.23 1737.93 1575.53 1737.93C1573.84 1737.93 1571.64 1740.02 1570.66 1742.58C1568.42 1748.42 1615.29 1780.73 1622.18 1778.08C1630.24 1774.99 1627.9 1771.18 1609.39 1757.36C1594.08 1745.93 1591.98 1742.93 1593.6 1734.84C1596.33 1721.18 1591.68 1715.39 1584.42 1723.42ZM1559.6 1766.17C1549.11 1771.94 1540.73 1783.7 1540.65 1792.78C1540.6 1797.49 1545.52 1805.87 1552.33 1812.68C1567.84 1828.19 1588.11 1829.34 1599.13 1815.32C1612.71 1798.06 1605.64 1776.25 1583.47 1766.98C1569.8 1761.27 1568.59 1761.22 1559.6 1766.17ZM1557.8 1783.05C1552.54 1792.88 1556.58 1802.84 1568.32 1808.91C1581.7 1815.83 1584.47 1815.46 1590.73 1805.9C1597.4 1795.71 1594.5 1787.61 1581.83 1781.06C1568.53 1774.18 1562.27 1774.7 1557.8 1783.05ZM1514.87 1819.5C1511.88 1822.49 1509.43 1827.16 1509.43 1829.88C1509.43 1836.77 1506.01 1836.06 1496.61 1827.23C1489.28 1820.34 1488.03 1820.14 1483.12 1825.06C1478.2 1829.98 1480.76 1832.94 1510.8 1857.12C1540.4 1880.92 1550.95 1885.96 1550.95 1876.3C1550.95 1874.6 1554.84 1869.31 1559.6 1864.55C1569.15 1854.99 1570.34 1846.67 1564.11 1833C1556.41 1816.08 1526.49 1807.88 1514.87 1819.5ZM1522.12 1826.75C1517.57 1831.3 1519.93 1847.69 1525.87 1852.79C1540.77 1865.6 1554.41 1863.56 1554.41 1848.53C1554.41 1834.48 1530.51 1818.36 1522.12 1826.75ZM1479.05 1860.99C1466.99 1869.43 1460.01 1885.33 1464.6 1893.91C1467.7 1899.7 1469.35 1900.23 1473.51 1896.78C1476.32 1894.45 1477.73 1890.23 1476.64 1887.4C1474.39 1881.52 1484 1869.43 1490.94 1869.43C1497.73 1869.43 1496.64 1877.55 1488.46 1887.95C1480.16 1898.5 1480.46 1917.01 1489.01 1922.36C1498.68 1928.41 1512.29 1922.16 1519.61 1908.3C1523.36 1901.2 1526.49 1896.74 1526.58 1898.4C1526.66 1900.06 1529.09 1899.46 1531.97 1897.07C1536.5 1893.31 1534.54 1890.17 1517.75 1874.15C1497.01 1854.38 1491.27 1852.43 1479.05 1860.99ZM1497.71 1893.93C1492.98 1901.94 1492.37 1905.65 1495.31 1908.59C1501.49 1914.77 1511.16 1906.65 1511.16 1895.29C1511.16 1881.79 1505.24 1881.19 1497.71 1893.93ZM1399.97 1905.79C1398.01 1910.9 1402.16 1916.25 1437.36 1953.95L1453.27 1971L1466.65 1960.39C1487.82 1943.6 1494 1935.65 1489.44 1931.09C1486.52 1928.17 1481.61 1930.38 1470.21 1939.73L1454.89 1952.28L1431.39 1926.42C1418.47 1912.2 1406.56 1900.57 1404.93 1900.57C1403.31 1900.57 1401.07 1902.92 1399.97 1905.79Z" fill="#424347"/>
<path d="M1005.67 105.433C1002.45 105.402 997.474 103.741 994.62 101.741C986.186 95.8273 1092.05 100.326 1124.08 107.24C1177 118.669 1241.45 149.003 1292.13 186.348C1333.01 212.568 1408.62 303.779 1441.31 346.107C1486.65 406.473 1536.66 497.478 1556.29 555.336C1583.41 632.433 1639.17 813.674 1645.34 921.86C1658.82 1036.87 1654.46 1199.82 1634.61 1323.72C1594.27 1507.22 1430.98 1894.15 1100.54 1973.86C1073.69 1973.61 1073.58 1973.75 1113.97 1958.15C1279.63 1875.86 1374.28 1749.55 1400.9 1696.68C1442.53 1625.45 1482.16 1524.46 1503.45 1435.33C1509 1412.12 1513.54 1392.6 1513.54 1391.97C1513.54 1391.33 1501.47 1402.62 1486.73 1417.06C1471.98 1431.5 1450.97 1449.89 1440.03 1457.93C1413.73 1477.26 1364.66 1501.94 1338.83 1508.83C1314.29 1515.38 1239.05 1519.56 1247.16 1513.93C1250.01 1511.94 1266.75 1501.39 1284.35 1490.46C1326.88 1464.08 1353.41 1444.17 1389.74 1411.34C1418.26 1385.58 1457.85 1343.56 1464.05 1332.47C1465.87 1329.22 1476.64 1326.19 1494.08 1324.03C1509.03 1322.17 1522.64 1319.28 1524.31 1317.61C1528.43 1313.49 1536.38 1253.7 1541.46 1188.59C1545.9 1131.74 1544.1 1022.09 1537.66 956.741C1529.14 870.387 1493.77 673.024 1489 685.225C1487.54 688.962 1486.24 700.755 1486.1 711.434C1485.97 722.109 1483.48 754.81 1480.56 784.102C1467.3 917.466 1443.35 1008.45 1404.2 1074.29C1359.4 1149.62 1302.53 1181.55 1221.21 1177.01C1185.33 1175.01 1171.05 1172.39 1171.05 1167.8C1171.05 1166.32 1174.63 1164.22 1178.99 1163.12C1193.37 1159.51 1229.64 1133.65 1251.56 1111.39C1277.28 1085.25 1302.53 1048.5 1316.78 1016.44C1322.5 1003.59 1329.26 988.403 1331.8 982.694C1347.13 948.294 1367.85 860.082 1377.31 788.912C1380.1 767.977 1383.31 706.856 1384.45 653.092L1386.52 555.336H1415.43C1431.34 555.336 1444.35 554.709 1444.35 553.948C1444.35 553.183 1437.52 535.663 1429.17 515.019C1357.42 337.612 1241.05 203.573 1103.43 139.847C1073.64 126.05 1015.31 105.52 1005.67 105.433Z" fill="url(#paint0_linear_156_32)"/>
<path d="M986.937 201.906C977.845 191.182 970.404 181.302 970.404 179.956C970.404 178.067 1068.64 180.998 1069.11 182.901C1069.17 183.143 1076.21 191.908 1084.76 202.376C1146.63 278.162 1205.13 379.655 1229.84 454.095C1256.27 533.698 1267.3 618.221 1261 692.886C1256.06 751.401 1237.2 839.371 1219.82 884.938L1216.2 894.454H1179.79C1159.76 894.454 1143.38 895.046 1143.38 895.772C1143.38 896.495 1147.44 907.787 1152.42 920.86C1164.6 952.862 1166.57 959.883 1174.56 999.504C1183.71 1044.93 1183.26 1078.15 1172.88 1123.94C1156.2 1197.5 1125.96 1240.8 1078.22 1259.54C1055.88 1268.31 1050.93 1268.98 1019.72 1267.48C1000.97 1266.57 982.706 1264.2 979.132 1262.2C973.314 1258.94 974.21 1257.76 987.67 1250.89C1021.1 1233.83 1049.59 1193.32 1064.44 1141.75C1071.26 1118.03 1072.37 1106.22 1072.41 1057.09C1072.47 978.915 1061.36 934.574 1030.26 888.858C1019.17 872.553 988.092 844.88 970.75 835.87C953.218 826.755 962.039 823.755 1010.56 822.329C1057.55 820.952 1059.83 821.637 1096.08 848.022C1107.45 856.296 1117.94 862.335 1119.4 861.435C1126.03 857.331 1146.47 781.746 1153.98 733.546C1159.46 698.35 1159.55 600.134 1154.15 563.987C1134.6 433.381 1076.48 307.52 986.937 201.906Z" fill="url(#paint1_linear_156_32)"/>
<path d="M749 427.284C749 425.824 757.953 423.094 768.892 421.218C799.297 416.007 813.792 416.481 846.712 423.761C882.029 431.572 916.326 447.569 944.884 469.553C983.322 499.143 991.59 510.998 1014.51 569.375C1036.21 624.651 1067.27 718.801 1067.27 729.296C1067.27 734.667 1062.52 735.276 1020.75 735.276H974.223L956.975 682.505C933.156 609.633 917.177 566.156 906.899 546.263C879.584 493.391 822.932 448.562 764.986 433.966C756.192 431.751 749 428.744 749 427.284Z" fill="url(#paint2_linear_156_32)"/>
<path d="M840.091 1297.02C841.661 1295.45 851.773 1293.22 862.567 1292.06C881.241 1290.06 904.267 1290.87 927.3 1294.32C934.191 1295.36 943.901 1302.15 955.473 1314.05L973.13 1332.19L974.857 1384.1C977.41 1460.98 992.437 1516.68 1027.61 1579.61C1048.83 1617.58 1070.89 1646.34 1108.23 1684.68C1154.94 1732.63 1198.82 1767.2 1266.75 1809.55C1278.81 1817.07 1288.67 1824.24 1288.67 1825.49C1288.67 1826.74 1278.16 1828.88 1265.32 1830.26C1252.48 1831.63 1231.35 1833.88 1218.37 1835.24L1194.78 1837.72L1160.31 1819.42C1121.25 1798.68 1106.95 1788.89 1064.43 1753.81C980.25 1684.36 912.002 1585.47 885.776 1494.94C875.598 1459.81 868.392 1394 871.135 1361.25C873.284 1335.65 871.347 1331.14 849.742 1311.33C842.865 1305.03 838.523 1298.59 840.091 1297.02Z" fill="url(#paint3_linear_156_32)"/>
<path d="M1039.59 1325.47C1039.59 1324.55 1053.99 1323.29 1071.59 1322.66C1089.19 1322.03 1112.15 1321.23 1122.62 1320.89L1141.65 1320.26L1153.75 1338.3C1181.96 1380.32 1222.55 1412.34 1264.46 1425.63C1274.92 1428.95 1284.74 1432.81 1286.28 1434.21C1287.81 1435.6 1267.45 1437.84 1241.03 1439.18C1161.95 1443.2 1135.61 1433.87 1085.97 1384.25C1062.37 1360.66 1039.59 1331.79 1039.59 1325.47Z" fill="url(#paint4_linear_156_32)"/>
<path d="M499.538 723.618L547.514 710.978C573.902 704.026 597.357 698.188 599.637 698.001C602.796 697.745 604.055 738.751 604.92 869.82C606.137 1054.52 606.307 1056.32 624.244 1075.67C636.563 1088.96 652.674 1091.33 667.657 1082.07C685.13 1071.27 691.617 1059.29 691.617 1037.81C691.617 992.809 663.467 971.618 623.877 986.816C618.425 988.906 617.979 983.148 617.979 910.947V832.814L637.611 827.105C708.153 806.592 784.157 855.66 818.523 943.896C832.24 979.109 837.238 1013.43 834.831 1055.82C831.344 1117.2 812.531 1161.88 777.003 1193.17C730.56 1234.05 710.367 1241.06 656.251 1235.05C594.182 1228.16 559.418 1201.17 526.314 1134.17C504.153 1089.32 503.714 1085.09 501.524 895.544L499.538 723.618Z" fill="#274569"/>
<path d="M227 792.321L248.653 787.03C260.56 784.12 272.025 781.511 274.128 781.227C280.739 780.341 282.365 821.676 282.389 991.259L282.413 1155.09L264.919 1152.68C255.298 1151.36 243.235 1149.15 238.108 1147.78L228.792 1145.29L227 792.321Z" fill="#274569"/>
<path d="M315.714 909.936C331.254 884.046 342.22 872.664 359.894 864.083C380.603 854.023 398.664 854.982 423.631 867.46C455.541 883.412 478.062 913.49 486.185 951.008C487.952 959.167 490.506 985.919 491.862 1010.45L494.328 1055.06L486.098 1053.14C481.573 1052.09 453.351 1049.27 423.386 1046.87L368.899 1042.52V1029.75C368.899 1022.73 369.865 1009.94 371.044 1001.34C373.175 985.795 373.296 985.674 388.511 983.957C396.942 983.006 404.746 981.317 405.86 980.203C409.299 976.763 399.464 957.132 392.41 953.357C387.404 950.679 383.554 951.212 377.026 955.489C363.831 964.136 357.801 982.594 357.656 1014.79C357.549 1037.93 359.05 1046.24 365.807 1059.87C375.047 1078.52 383.197 1081.91 398.913 1073.68L408.569 1068.62L428.519 1110.28C439.489 1133.19 448.466 1153.7 448.466 1155.87C448.466 1161.54 421.504 1178.21 408.34 1180.68C387.608 1184.57 360.534 1173.6 339.875 1152.94C307.916 1120.97 292.792 1075.87 292.792 1012.56C292.792 968.714 300.115 935.927 315.714 909.936Z" fill="#274569"/>
<defs>
<linearGradient id="paint0_linear_156_32" x1="920" y1="1091" x2="2872" y2="1066" gradientUnits="userSpaceOnUse">
<stop stop-color="#43509F"/>
<stop offset="0.520833" stop-color="#5267AC"/>
<stop offset="1" stop-color="#274569" stop-opacity="0"/>
</linearGradient>
<linearGradient id="paint1_linear_156_32" x1="920" y1="1091" x2="2872" y2="1066" gradientUnits="userSpaceOnUse">
<stop stop-color="#43509F"/>
<stop offset="0.520833" stop-color="#5267AC"/>
<stop offset="1" stop-color="#274569" stop-opacity="0"/>
</linearGradient>
<linearGradient id="paint2_linear_156_32" x1="920" y1="1091" x2="2872" y2="1066" gradientUnits="userSpaceOnUse">
<stop stop-color="#43509F"/>
<stop offset="0.520833" stop-color="#5267AC"/>
<stop offset="1" stop-color="#274569" stop-opacity="0"/>
</linearGradient>
<linearGradient id="paint3_linear_156_32" x1="920" y1="1091" x2="2872" y2="1066" gradientUnits="userSpaceOnUse">
<stop stop-color="#43509F"/>
<stop offset="0.520833" stop-color="#5267AC"/>
<stop offset="1" stop-color="#274569" stop-opacity="0"/>
</linearGradient>
<linearGradient id="paint4_linear_156_32" x1="920" y1="1091" x2="2872" y2="1066" gradientUnits="userSpaceOnUse">
<stop stop-color="#43509F"/>
<stop offset="0.520833" stop-color="#5267AC"/>
<stop offset="1" stop-color="#274569" stop-opacity="0"/>
</linearGradient>
</defs>
</svg>
